<svg viewBox="0 0 236 17" fill="none" class="css-10d34qj"><path d="M8.086 13.912c.621-.291 1.242-.583 1.862-.93.62-.35 1.33-.641 1.95-.99l4.52-2.44c-.353.346-.795.694-1.148 1.04-.354.346-.707.635-1.15.982-.176.173-.442.347-.619.52a1.343 1.343 0 00-.529.634c-.176.23-.263.403-.35.633-.176.345.005.802.452 1.027.18.113.447.226.715.28.267.056.623.053.89-.006.355-.06.711-.063 1.067-.123.266-.06.444-.118.71-.177.267-.06.533-.119.71-.235.8-.235 1.509-.584 2.307-.934.798-.35 1.686-.7 2.483-1.107a65.885 65.885 0 002.483-1.222c.798-.35 1.507-.756 2.216-1.163-.088.058-.177.116-.177.173-.707.579-1.414 1.214-2.122 1.792-.442.347-.884.694-1.238 1.04-.176.174-.352.404-.529.634-.087.173-.175.345-.174.517.002.172-.086.344-.174.517-.086.287-.085.516.184.743.18.17.537.396.894.45.534.054 1.069.107 1.692.16.267-.003.535.053.801-.007.267-.002.534-.061.8-.063.534-.062.978-.18 1.422-.298.533-.118.977-.294 1.421-.412 1.953-.645 3.905-1.404 5.768-2.163.888-.35 1.685-.758 2.573-1.108-.53.462-1.15.925-1.68 1.387l-1.062.867c-.354.29-.619.52-.794.865-.176.288-.262.575-.35.862-.085.401.007.744.454 1.027.179.113.447.226.714.28.267.056.623.053.89-.006.178-.002.355-.06.444-.06a76.021 76.021 0 001.512-.184 8.01 8.01 0 001.6-.356c1.065-.295 2.041-.646 3.018-.998 1.952-.76 3.814-1.575 5.677-2.392.266-.116.532-.233.798-.407 0 0 0 .058-.089.058a2.504 2.504 0 00-.44.576c-.175.345.005.687.097 1.03.182.572 1.163.85 2.053.729.533-.119 1.066-.18 1.6-.3a11.36 11.36 0 001.864-.53c1.244-.352 2.396-.877 3.46-1.343.888-.35 1.686-.758 2.573-1.108 1.686-.7 3.282-1.4 4.967-2.158.887-.407 1.863-.873 2.75-1.28-.354.288-.797.635-1.15.924-.177.116-.354.29-.531.405-.443.29-.797.58-1.15.868-.354.346-.44.748-.436 1.149 0 .172.091.343.093.514 0 .058.09.171.09.229.09.17.18.285.27.456.091.17.27.341.45.512.268.17.804.337 1.249.333.978-.065 2.046-.13 3.113-.253a15.2 15.2 0 002.843-.652c1.865-.53 3.64-1.174 5.414-1.875 1.243-.468 2.484-.993 3.726-1.518-.265.232-.62.406-.885.637-.53.405-1.15.81-1.681 1.216-.443.29-.797.579-1.24.868-.619.463-1.149.983-1.679 1.502-.441.462-.168 1.261.635 1.484.267.055.446.168.714.224l.802.165c.534.053 1.068-.008 1.69-.07.534-.062 1.067-.238 1.51-.413.622-.177 1.243-.41 1.775-.644.533-.176.977-.35 1.51-.527.532-.176.975-.351 1.508-.584.887-.35 1.774-.701 2.572-1.051.267-.117.533-.233.71-.35-.088.173-.265.29-.353.462-.264.345-.35.747.009 1.088.358.34.894.508 1.517.503.445-.003.801.051 1.157.048.267-.002.534-.061.8-.063.267-.06.534-.062.712-.12.533-.119.977-.294 1.51-.413.443-.175.976-.351 1.42-.526.976-.351 1.863-.76 2.839-1.11.976-.409 2.041-.818 3.016-1.226 2.041-.875 3.991-1.807 6.032-2.682.354-.174.62-.29.975-.465-.089.058-.177.116-.177.173-.707.578-1.503 1.214-2.21 1.85-.354.289-.707.635-1.15.925-.442.404-.973.752-1.416 1.099-.176.173-.441.404-.618.634-.264.289-.44.634-.615.979-.176.23.005.572.184.8.27.284.805.509 1.428.504l.712-.006.712-.005c.623-.005 1.245-.124 1.867-.244.533-.119.978-.237 1.51-.412a21.44 21.44 0 001.776-.587 189.585 189.585 0 006.477-2.513c2.04-.875 4.081-1.75 6.12-2.682.976-.465 1.951-.93 2.927-1.34l-.089.059c-.53.462-1.149.925-1.68 1.387l-1.061.867c-.177.116-.265.231-.353.346-.088.116-.176.288-.264.403-.088.116-.087.287.003.458.002.23.181.4.272.628.271.456.985.794 1.785.616l2.933-.538c.978-.18 1.865-.473 2.753-.766 1.154-.353 2.308-.762 3.373-1.114 1.421-.47 2.752-.938 4.172-1.464 1.331-.469 2.574-.937 3.905-1.405-.354.232-.797.464-1.151.696-1.063.695-2.215 1.334-3.278 2.03-1.24.754-2.391 1.507-3.631 2.261l-2.125 1.391c-.443.29-.975.58-1.417.87a1.309 1.309 0 00-.354.346 2.46 2.46 0 00-.264.403c-.088.115-.086.287-.085.402.001.229.092.4.093.629.002.229.093.457.45.626.358.226.893.28 1.337.219.8-.121 1.689-.242 2.489-.363a18 18 0 002.399-.534c1.688-.472 3.374-1 4.972-1.585.71-.235 1.509-.527 2.219-.82a20.147 20.147 0 011.686-.642 67.357 67.357 0 001.952-.76c-.177.116-.443.233-.621.349-.266.116-.532.233-.708.406-.178.116-.266.231-.443.347-.088.115-.176.23-.264.403a.65.65 0 00.005.572c.001.172.091.286.181.4.27.341.717.624 1.341.791.803.165 1.603.102 2.492-.077.444-.06.888-.236 1.332-.354.444-.118.799-.235 1.243-.353l3.73-1.06c1.332-.411 2.574-.879 3.817-1.29l2.396-.877c1.775-.644 3.55-1.345 5.324-2.046 1.154-.467 2.396-.992 3.549-1.459-.443.29-.796.636-1.239.926-.442.29-.885.637-1.328.926l-1.326 1.041c-.443.348-.707.75-1.059 1.154-.53.577-.079 1.375.991 1.538.356.055.712.11 1.158.163.267.055.534.053.801.051.267-.002.534-.061.801-.063.533-.062.977-.18 1.51-.356.444-.118.977-.294 1.42-.469.888-.293 1.687-.586 2.575-.88 1.065-.35 2.041-.76 3.106-1.169l2.661-1.051-.265.174c-.443.29-.885.637-1.328.984-.442.347-.795.75-.791 1.208.002.287.181.457.361.685.091.17.538.454.805.509.089-.001.179.056.179.056.268.112.535.167.891.164.356-.002.712-.005.978-.065.712-.12 1.333-.296 1.954-.53l1.066-.352c.355-.117.798-.293 1.153-.41.71-.292 1.509-.584 2.219-.876l.798-.35c-.177.116-.354.29-.531.405-.265.231-.619.463-.884.694-.443.347-.886.637-1.328.984-.442.347-.795.693-1.149 1.04-.265.23-.262.574-.171.803.09.228.36.512.716.624.179.056.357.112.625.167.267.055.446.11.713.166.267.055.445.054.712.052.445-.004.801-.064 1.157-.067.623-.062 1.333-.24 1.955-.416.621-.176 1.243-.41 1.864-.587.533-.176 1.066-.295 1.599-.47a26.076 26.076 0 001.953-.646c1.065-.351 2.13-.703 3.106-1.112.799-.292 1.508-.584 2.307-.877-.088.058-.088.115-.176.173-.442.405-.259 1.033.277 1.372.447.283.984.565 1.608.732.356.055.712.052 1.068.05.534-.005.978-.123 1.512-.242.355-.06.71-.177.976-.294.355-.117.8-.178 1.155-.295.888-.236 1.687-.528 2.574-.879 1.243-.468 2.484-.993 3.726-1.518-.087.173-.086.344-.085.516.002.172.093.4.183.571.09.114.09.171.18.285.09.114.269.227.359.341.268.17.714.28 1.07.335.178-.001.356-.003.446.054l.623-.005c.444-.06.8-.063 1.155-.18 1.423-.24 2.843-.71 4.174-1.178a88.497 88.497 0 004.437-1.696c1.065-.409 2.04-.875 3.105-1.284.089-.058.178-.058.266-.116.001.057-.088.115-.088.115-.529.577-.167 1.375.726 1.712.446.168.98.221 1.513.103.445-.061.977-.294 1.153-.582.351-.575.703-1.093 1.055-1.669.176-.23.263-.517.439-.747.088-.173.176-.288.264-.46.175-.346.261-.747.258-1.148-.003-.286-.183-.571-.451-.74a2.228 2.228 0 00-1.604-.275c-.533.12-1.067.238-1.511.356-.444.118-.798.35-1.242.525-.443.175-.798.35-1.242.468-.621.29-1.331.525-1.952.817a77.89 77.89 0 00-2.572 1.05c-.976.409-1.953.76-3.017 1.17-.533.175-.977.35-1.509.526-.266.117-.533.176-.799.293.707-.578 1.504-1.157 2.211-1.735 1.151-.868 2.301-1.679 3.363-2.546.177-.116.353-.29.441-.462.087-.287.085-.573-.184-.8-.18-.227-.626-.396-.983-.507-.357-.055-.98-.05-1.245.124a230.733 230.733 0 01-5.409 2.562c-1.064.523-2.218.99-3.282 1.514-1.33.583-2.661 1.166-4.08 1.75-.887.35-1.775.7-2.662.994.354-.175.62-.406.974-.58a41.75 41.75 0 012.126-1.277c1.684-.986 3.277-2.03 4.961-2.959l.266-.174c.62-.405.614-1.092-.012-1.488-.268-.17-.714-.281-1.159-.278-.445.004-.8.121-1.155.296l-.265.174c-.887.407-1.863.816-2.75 1.166-.71.292-1.508.642-2.218.934-1.597.642-3.105 1.284-4.702 1.926-.444.175-.976.351-1.42.527-1.154.41-2.218.876-3.372 1.286-.887.35-1.775.7-2.751.995-1.154.41-2.308.82-3.462 1.172-.533.176-1.066.295-1.51.47-.355.117-.799.235-1.154.352.442-.347.885-.694 1.416-1.041l1.593-1.215c.796-.58 1.593-1.1 2.301-1.679.619-.405 1.239-.868 1.859-1.274l1.326-1.041c.354-.29.708-.636 1.061-.982a.692.692 0 00-.008-.973 1.405 1.405 0 00-.536-.34c-.357-.111-.803-.165-1.158-.105-.267.06-.533.119-.711.177-.355.118-.621.234-.976.351-.355.175-.709.35-1.065.467-.62.291-1.152.524-1.773.815-.887.408-1.863.817-2.75 1.224-1.064.467-2.217.934-3.282 1.4-.621.234-1.153.467-1.774.701-.089 0-.089.058-.178.059.708-.464 1.328-.927 2.036-1.39.62-.463 1.328-.927 1.947-1.39.532-.348.974-.695 1.505-1.042.531-.405 1.062-.81 1.682-1.216.177-.116.354-.289.441-.461.087-.287.085-.574-.184-.8-.359-.399-1.162-.621-1.873-.444-.266.06-.622.12-.888.236-.443.175-.887.35-1.242.525-.266.117-.621.234-.887.35-.621.234-1.242.526-1.863.76-1.153.467-2.306.99-3.46 1.458-1.419.584-2.928 1.168-4.347 1.752-1.153.467-2.307.877-3.461 1.344-.887.35-1.775.644-2.751.937-.356.118-.711.235-1.154.41.265-.174.442-.347.708-.52.353-.29.796-.58 1.15-.868l1.592-1.215c.797-.637 1.593-1.215 2.389-1.851.354-.29.708-.579 1.151-.811.443-.29.796-.579 1.15-.925.353-.29.529-.634.704-.98.086-.343-.006-.744-.453-.97-.447-.282-1.338-.39-1.87-.156-3.726 1.518-7.452 3.093-11.267 4.611-.621.292-1.331.526-1.952.76-1.065.41-2.041.76-3.106 1.17-2.929 1.11-5.857 2.164-8.877 3.046.532-.29.975-.58 1.507-.813 1.418-.813 2.836-1.568 4.254-2.324l5.051-2.788c.798-.464 1.595-.928 2.482-1.336l1.595-.871c.532-.234 1.064-.581 1.595-.872.532-.29.528-.806.258-1.147-.179-.228-.537-.397-.893-.451-.445-.054-.623-.053-.712-.052a2.46 2.46 0 00-.712.12c-.709.35-1.33.64-2.039.99-.266.173-.532.29-.797.464-.799.35-1.597.7-2.484 1.05-.976.408-1.952.817-2.927 1.283-2.129.932-4.347 1.809-6.476 2.742l-2.129.875c-1.242.468-2.485.936-3.638 1.403-1.331.525-2.574.993-3.904 1.519l-1.864.702c-1.597.585-3.106 1.112-4.794 1.583-.621.177-1.332.297-1.954.474l.088-.058.797-.522c.62-.406 1.151-.81 1.771-1.216 1.24-.812 2.48-1.566 3.719-2.377 1.152-.753 2.303-1.45 3.455-2.146.532-.29.974-.637 1.506-.928a52.65 52.65 0 002.302-1.45c.354-.23.709-.463.973-.751.354-.29.619-.578.884-.866.618-.577-.367-1.429-1.434-1.191-.799.178-1.51.355-2.309.59-.533.176-1.065.41-1.598.586-.798.292-1.597.585-2.485.878-1.243.41-2.396.82-3.639 1.288-1.065.352-2.13.761-3.284 1.114-2.042.703-4.083 1.406-6.126 1.994a34.16 34.16 0 01-1.421.355c.088-.115.265-.231.353-.346.531-.463 1.15-.925 1.681-1.388.619-.463 1.149-.925 1.768-1.445.354-.29.708-.578 1.061-.925.354-.231.619-.52.884-.808.442-.347.706-.75.97-1.153.265-.288.262-.632-.007-.916-.27-.341-.984-.565-1.605-.388-.444.118-.889.236-1.332.411-.355.117-.621.291-.976.466-.354.174-.798.35-1.153.524-.709.35-1.419.641-2.128.933a150.48 150.48 0 01-4.435 1.981L118.046 7.9c-1.419.584-2.928 1.168-4.347 1.752l-2.929 1.054c-.977.35-2.041.76-3.018 1.054-.089 0-.089 0-.178.059.177-.174.443-.347.619-.52.531-.406.973-.867 1.503-1.272.796-.636 1.593-1.272 2.3-1.908.619-.52 1.326-1.04 1.945-1.618.531-.405.973-.81 1.503-1.272a24.593 24.593 0 002.033-1.848c.265-.231.263-.517.171-.803-.09-.228-.36-.512-.716-.624-.268-.055-.446-.111-.714-.166a2.92 2.92 0 00-1.422.183c-.622.233-1.064.523-1.596.814l-6.385 2.97-3.991 1.749c-1.686.757-3.46 1.458-5.235 2.16l-1.863.701c.354-.232.708-.464 1.062-.753.796-.578 1.593-1.1 2.479-1.68.531-.347 1.062-.695 1.505-1.042.442-.29.885-.637 1.327-.984.354-.289.618-.634.972-.924.353-.403.259-.975-.277-1.314a2.283 2.283 0 00-.715-.281c-.356-.055-.979-.05-1.245.124-1.064.524-2.127 1.047-3.103 1.57-.886.465-1.861.931-2.837 1.397-.798.35-1.507.756-2.305 1.106l-1.064.523c-1.419.641-2.838 1.282-4.258 1.866-.975.409-1.951.817-3.016 1.226-.71.292-1.508.585-2.219.82.443-.348.885-.695 1.416-1.043.885-.694 1.859-1.331 2.833-2.026.796-.579 1.681-1.158 2.478-1.737.442-.347.974-.638 1.416-.985.974-.694 2.127-1.219 2.922-2.027.352-.403.26-.918-.277-1.257-.537-.34-1.338-.39-1.96-.157-2.394 1.05-4.879 2.043-7.274 3.035-1.242.525-2.484.993-3.726 1.518-1.42.583-2.75 1.11-4.17 1.636-.8.292-1.51.527-2.308.82-.799.292-1.598.527-2.486.763-.355.117-.71.177-1.067.238-.444.117-.977.179-1.422.24l-.178.001c.266-.174.443-.347.708-.52.354-.29.708-.579 1.15-.869.531-.405 1.062-.81 1.504-1.214.708-.578 1.416-1.099 2.123-1.677.619-.52 1.327-.984 2.035-1.505.443-.347.885-.694 1.327-1.098l1.06-1.04c.442-.403.26-.975-.277-1.257-.537-.34-1.338-.39-1.96-.156l-1.33.526c-.263.517-.795.75-1.327 1.04-.443.233-.887.408-1.33.64-.976.467-2.04.933-3.015 1.456a261.213 261.213 0 01-4.877 2.271c-1.42.641-2.927 1.283-4.346 1.924-.976.408-1.863.816-2.839 1.224-.532.234-1.065.41-1.508.642-.355.175-.799.293-1.153.467 2.476-2.023 5.042-3.99 7.607-5.957.266-.231.442-.462.44-.748-.002-.229-.182-.514-.45-.684-.627-.396-1.516-.331-2.137.017-.532.29-.974.638-1.506.87-.266.175-.62.292-.886.466-.532.29-.975.523-1.507.813a95.869 95.869 0 00-3.368 1.802l-4.256 2.094a57.222 57.222 0 01-3.547 1.631c-.976.409-1.952.76-2.928 1.168-.976.409-1.952.76-3.018 1.055.53-.463 1.15-.983 1.68-1.445 1.15-.982 2.388-1.908 3.537-2.89.885-.695 1.859-1.39 2.743-2.083.442-.348.974-.695 1.416-1.042.265-.231.62-.463.974-.638.089-.058.266-.116.355-.174.354-.175.62-.349.975-.523.354-.175.62-.406.885-.58.177-.116.354-.289.353-.46.087-.23.085-.517-.184-.744-.18-.227-.537-.396-.894-.45-.356-.055-.89-.051-1.156.123-.266.174-.62.291-.887.408-.443.232-.797.407-1.152.639-.265.173-.531.347-.796.578-.532.29-1.064.524-1.507.814l-3.192 1.57-2.66 1.224c-1.153.524-2.217 1.048-3.37 1.515a85.297 85.297 0 01-4.347 1.81c-.71.291-1.42.526-2.219.818-.8.235-1.509.527-2.308.763-.444.118-.889.178-1.244.296.089-.058.177-.116.176-.23.62-.521 1.15-.983 1.769-1.503A20.16 20.16 0 0128.979 11c.973-.81 1.857-1.56 2.83-2.37.619-.52 1.326-1.098 1.945-1.618l1.061-.867c.53-.463 1.061-.925 1.502-1.444.353-.346.172-.86-.276-1.143-.447-.283-1.249-.39-1.781-.158-.532.234-.976.409-1.419.699-.265.173-.531.29-.886.465-.443.232-.975.523-1.418.755-1.064.524-2.128 1.105-3.191 1.628-1.33.64-2.572 1.28-3.902 1.92-1.063.524-2.216 1.048-3.28 1.572-.355.175-.799.35-1.153.524.353-.289.707-.578.972-.866.619-.578 1.326-1.156 1.944-1.733.354-.346.796-.693 1.15-1.04.442-.347.794-.75 1.147-1.154.442-.462.705-.979.968-1.44.088-.172.087-.343-.004-.572-.09-.17-.181-.342-.449-.454-.537-.34-1.338-.39-1.96-.157-.443.176-.975.351-1.419.584l-1.595.871c-.443.233-.797.465-1.24.697-.71.35-1.33.755-2.039 1.104-2.393 1.279-4.697 2.613-7.09 3.835-.798.407-1.507.756-2.305 1.163-.355.175-.71.349-1.153.524.353-.346.618-.692.971-1.038.618-.692 1.235-1.384 1.942-2.077.618-.634 1.147-1.268 1.765-1.903.353-.346.618-.692.97-1.096.353-.403.796-.75 1.059-1.21.087-.23.263-.46.262-.69-.002-.171-.092-.342-.093-.514-.092-.286-.539-.568-.984-.622-.446-.054-1.068.008-1.422.24-1.328.984-2.655 2.025-3.982 3.009-.002-.23-.18-.228-.269-.227-.356.002-.8.12-.977.294-.796.636-1.592 1.214-2.3 1.85-.883.751-1.767 1.56-2.651 2.311a.624.624 0 00.007.916c.27.284.716.453 1.25.449.178-.002.445-.004.622-.063.267-.059.533-.118.71-.177-.264.288-.618.52-.794.865-.176.23-.263.46-.35.69-.087.287-.085.573-.083.802.005.687 1.077 1.194 2.144 1.014.8-.178 1.6-.298 2.399-.534.622-.12 1.243-.41 1.952-.702z" fill="#ABF600"></path></svg>